<?xml version="1.0" encoding="utf-8"?>
<!-- Generator: Adobe Adobe Illustrator 24.2.0, SVG Export Plug-In . SVG Version: 6.00 Build 0)  -->
<svg version="1.1" xmlns="http://www.w3.org/2000/svg" xmlns:xlink="http://www.w3.org/1999/xlink" x="0px" y="0px" width="500px"
	 height="500px" viewBox="0 0 500 500" style="enable-background:new 0 0 500 500;" xml:space="preserve">
<style type="text/css">
	.st0{display:none;}
	.st1{display:inline;fill:#2B333A;stroke:#000000;stroke-miterlimit:10;}
	.st2{display:inline;opacity:0.149;}
	.st3{fill:#FFFFFF;}
	.st4{opacity:0.9804;}
	.st5{fill:#ED8A22;}
	.st6{fill:#2B333A;}
	.st7{fill:#324261;}
	.st8{fill:#F2F0EA;}
</style>
<g id="Layer_1" class="st0">
	<rect x="-290" y="-710" class="st1" width="1080" height="1920"/>
	<g class="st2">
		<g>
			<g>
				<path class="st3" d="M700.34,384.7c-14.02-15.45-19.74-38-19.74-62.47V82c0-39.32,14.74-73.75,55.04-81.61
					c22.66-3.9,28.54-8.85,28.54-19.68c0-9.79-8.85-16.72-23.59-16.72c-23.65,0-97.39,9.84-128.84,9.84
					c-31.45,0-106.18-9.84-129.77-9.84c-14.74,0-23.59,6.92-23.59,16.72c0,10.83,5.88,15.78,28.48,19.68
					c40.31,6.88,56.03,42.29,56.03,81.61v240.23c0,24.36-6.05,47.24-20.23,62.74c-201.26,30.68-342.09,166.95-342.09,377.77
					c0,242.89,183.88,384.48,431.66,384.48c248.77,0,432.65-142.58,432.65-384.48C1044.91,551.32,903.25,414.89,700.34,384.7
					 M612.25,1090.21c-143.57,0-271.43-130.76-271.43-329.39c0-192.07,119.49-321.63,257.18-329.99c0.5-0.06,1.05-0.06,1.54-0.11
					c1.92-0.11,3.9-0.16,5.83-0.22c2.25-0.06,4.56-0.11,6.87-0.11c3.14,0,6.27,0.05,9.4,0.22c2.53,0.06,5.06,0.22,7.59,0.44
					c1.1,0.06,2.15,0.11,3.19,0.22c136.05,11.6,252.19,140.16,252.19,329.55C884.61,959.45,756.76,1090.21,612.25,1090.21"/>
			</g>
		</g>
	</g>
</g>
<g id="Layer_1_copy">
	<g class="st4">
		<g>
			<g>
				<path class="st5" d="M233.52,439.52c0-26,21.08-47.08,47.08-47.08s47.09,21.08,47.09,47.08c0,26-21.08,47.08-47.09,47.08
					S233.52,465.52,233.52,439.52"/>
				<path class="st5" d="M92.27,272.37c0-39.01,31.62-70.63,70.63-70.63c39.01,0,70.63,31.62,70.63,70.63S201.9,343,162.9,343
					C123.89,343,92.27,311.37,92.27,272.37"/>
				<path class="st5" d="M219.4,107.57c0-52.01,42.16-94.17,94.17-94.17c52.01,0,94.17,42.16,94.17,94.17s-42.16,94.17-94.17,94.17
					C261.56,201.74,219.4,159.58,219.4,107.57"/>
			</g>
		</g>
	</g>
</g>
</svg>
