<?xml version="1.0" encoding="UTF-8"?>
<svg id="Layer_5" data-name="Layer 5" xmlns="http://www.w3.org/2000/svg" viewBox="0 0 504 531">
  <path d="M427.64,208.59h-2.16c.11-.23.23-.56.23-.8,3.53-8.42-1.82-16.28-8.31-17.3-1.83-.23-1.94,1.48-1.71,2.28.91,2.28,1.82,5.92-3.19,15.37-.11.11-.23.23-.23.45h-10.82c-.68,0,0,5.36,5.7,5.36h2.05c-5.65,9.95-14.41,24.33-19.95,34.01-.03.06-.08.12-.11.18-1.3,1.99-3.53,4.97-6.81,5.66-.45,0-.8.12-1.25.12,1.25-4.1,2.04-8.32,2.16-12.19.68-12.87-6.27-17.77-12.53-16.74-.23,0-.45-.11-.8-.11-9.38,0-19.68,9.33-25.01,22.05-1.04,1.66-3.5,6.02-7.56,6.87-.45,0-.8.12-1.26.12,1.26-4.1,2.05-8.32,2.16-12.19.68-12.87-6.26-17.77-12.53-16.74-.23,0-.45-.11-.8-.11-9.5,0-19.92,9.56-25.19,22.5h0c-1.41,2.21-4.25,6.79-7.26,10.41-9.23,10.93-9.68,3.07-5.7-5.01,2.96-5.7,4.33-7.75,5.7-12.07,2.28-7.51-3.19-15.94-10.71-15.82h-.34c2.39-6.27,1.94-9.8-.91-9.8-3.77-.11-5.81,4.22-6.38,7.4-.46,2.74,0,5.12,1.26,6.84-2.96,6.72-8.21,15.94-9.8,19.02,0,.02-.02.03-.03.06l-.03.05c-1.38,2.26-3.05,4.88-5.52,8.08-9.56,12.76-11.04,5.12-6.72-3.76,6.26-12.53,19.81-37.46,22.89-44.98,3.53-8.42-1.82-16.28-8.31-17.3-1.83-.23-2.05,1.48-1.71,2.28.8,2.28,1.83,5.92-3.3,15.37-2.96,5.46-8.32,14.46-13.56,23.34-1.02-3.64-5-6.49-11.16-6.6-9.67,0-20.96,8.37-27.27,23.57,0,.02,0,.03-.02.04-1.38,2.25-3.04,4.86-5.51,8.04-9.56,12.76-11.04,5.01-6.72-3.76,1.71-3.42,2.51-4.79,4.1-8.08,5.46-10.71-1.26-18.79-7.75-19.7-1.82-.35-2.28.57-1.93,1.02.68.8,1.02,4.1-.35,7.18-1.37,2.96-4.9,8.99-7.97,14.69-1.48,2.4-3.19,5.12-5.81,8.66-9.56,12.76-11.04,5.01-6.72-3.76,1.71-3.42,2.39-4.79,4.1-8.08,5.46-10.71-1.26-18.79-7.75-19.7-1.82-.35-2.39.57-1.94,1.02.68.8,1.03,4.1-.45,7.18-1.66,3.68-6.56,12.07-9.97,18.64h0c-1.31,1.96-2.87,4.12-4.49,5.96-9.22,10.93-9.22,2.96-5.12-5.12,2.85-5.7,5.47-9,7.52-13.67,3.07-7.29.45-13.56-6.95-14.01-6.94-.46-15.49,5.81-21.07,12.53-.45.57-.91,1.26-1.37,1.83,0-.12.12-.23.12-.35,3.19-7.29.56-13.56-6.95-14.01-6.83-.46-15.49,5.81-20.96,12.53-.23.23-.45.46-.56.68.68-7.4-4.56-12.53-9.69-13.32-1.82-.23-2.39.56-1.93,1.13.68.8,1.02,4.1-.46,7.18-2.16,4.79-9.79,17.54-12.52,23.92-3.87,9.23,1.82,21.18,10.02,21.18,4.33,0-.35-1.37,2.04-9.8,2.51-7.74,10.02-19.35,14.7-25.05,12.18-15.03,17.54-13.32,13.55-7.97-5.24,6.95-12.3,14.92-14.69,24.26-3.07,11.95,5.81,18.56,12.98,18.56,4.78,0,.34-1.71,2.96-10.59,2.74-7.74,9.9-18.78,14.35-24.25,12.29-15.03,17.54-13.32,13.55-7.97-5.24,6.95-12.19,14.92-14.58,24.26-3.07,11.95,3.07,18.56,10.25,18.56,4.92,0,10.72-6.37,15.57-13.28.61,6.99,5.24,13.28,11.18,13.28,3.88,0,9.91-6.83,15.15-14.12.35,7.29,5.12,14.12,11.27,14.12,4.4,0,11.62-8.66,17.23-16.9-.98,10.21,3.86,16.9,10.79,16.9,4.44,0,10.13-6.38,15.49-14.24.2,6.64,4.07,12.82,9.3,14.02-1.45,2.4-2.82,7.85-2.61,7.86-1.26,9.3,4.55,18.03,17.29,23.2,5.63,2.3,9.96,3.88,13.1,7.61,3.97,4.58,5.53,10.95,3.69,17.23-.7,2.37-1.83,4.61-3.36,6.55.26-.24.52-.48.76-.73,7.71-7.6,7.18-21.04-.65-28.37-5.63-5.38-13.21-7.13-17.76-10.95-5.81-4.28-7.76-9.23-7.32-15.14,1.32-3.5,3.41-7.09,6.12-10.8,5.79-7.51,13.75-18.71,16.7-24.55,0-.02.02-.03.03-.06,1.13-2.05,5.46-10.14,9.45-18.22.91.46,2.28,2.16-.92,7.97-2.96,5.35-8.08,14.12-9.56,18.33-3.19,9.34,2.62,20.27,10.25,20.27,4.98,0,12.85-9.95,18.52-18.6-.62,10.54,5.67,18.6,16.09,18.6,9.23,0,16.74-8.54,21.18-18.79,3.38-.11,6.02-1.26,8.07-2.81-2.11,11.97,4.35,21.61,15.74,21.61,9.22,0,16.74-8.54,21.18-18.79,1.88-.06,3.52-.45,4.97-1.04-2.83,9,2.71,19.83,10.51,19.83,7.18,0,22.32-23.8,24.95-30.06.8-2.28-1.71-3.76-3.19-1.37-1.71,2.61-3.53,5.7-6.49,9.68-9.56,12.76-11.04,5.12-6.72-3.76,5.01-10.14,14.8-28.24,20.05-38.83h10.25c.68,0,0-5.36-5.58-5.36ZM230.99,257.11c-8.42,10.47-10.93,5.92-7.97-2.05,2.05-5.46,5.01-10.93,10.02-16.74,6.03-6.94,11.5-8.31,13.21-5.12-1.48,2.51-9.34,16.63-15.26,23.92ZM278.13,222.49c0-.68.11-1.48.23-1.93.34-1.14,1.02-1.48-.23,1.93ZM314.34,250.62c.23-1.82.8-3.76,1.59-5.58,1.48,5.81,5.46,11.05,11.16,13.33-6.26,9.22-14.58,4.55-12.75-7.75ZM330.17,252.21c-3.98-2.28-7.29-6.83-6.49-13.78.8-8.42,6.95-8.31,8.32-2.96.68,2.96,1.02,9.23-1.83,16.74ZM359.32,250.62c.23-1.82.8-3.76,1.59-5.58,1.48,5.81,5.46,11.05,11.16,13.33-6.26,9.22-14.58,4.55-12.75-7.75ZM375.15,252.21c-3.99-2.28-7.29-6.83-6.49-13.78.8-8.42,6.94-8.31,8.31-2.96.68,2.96,1.02,9.23-1.82,16.74ZM236.61,287.98" fill="#1f1f1f" stroke-width="0"/>
  <path d="M236.83,305.36c.03-5.34,3.14-9.49,5.85-13.93,3.03-4.5,4.44-9.95,4.3-15.35-2.73,4.12-5.4,8.28-7.79,12.61-2.92,5.01-6.03,10.54-5.25,16.55.56,4.67,4.13,9.18,9.03,9.54.78.06,1.56.02,2.32-.16-1.38,0-2.75-.41-3.94-1.1-2.97-1.7-4.45-4.94-4.51-8.16Z" fill="#1f1f1f" stroke-width="0"/>
  <path d="M275.07,301.55c-2.89-3.81-7.63-6.17-12.41-6.09-6-.02-12.8,3.78-17.01-1.46-.16,3.88,4.02,6.4,7.55,6.27,2.87.01,5.59-1.06,8.38-1.59,2.47-.52,4.79-.38,7.08.25,3.14.91,6.03,2.77,8.04,5.36-.43-.97-.98-1.89-1.62-2.74Z" fill="#1f1f1f" stroke-width="0"/>
  <path d="M250.95,304.29c3.19,2.94,5.68,6.84,6.99,10.74,1.49,4.83,1.32,9.95,1.36,14.95.58-2.21,1.13-4.43,1.47-6.69,1.4-7.3-.75-18.58-9.83-19Z" fill="#1f1f1f" stroke-width="0"/>
</svg>