<?xml version="1.0" encoding="UTF-8"?>
<svg id="Layer_1" data-name="Layer 1" xmlns="http://www.w3.org/2000/svg" version="1.1" viewBox="0 0 133 104.4">
  <polygon points="63 0 60 0 60 7.1 52.9 7.1 52.9 10.1 60 10.1 60 17.2 63 17.2 63 10.1 70.1 10.1 70.1 7.1 63 7.1 63 0" fill="#000" stroke-width="0"/>
  <polygon points="133 65.7 109.9 65.7 121.1 54.4 119 52.3 108.9 62.4 108.9 29.9 105.9 29.9 105.9 63.5 94.7 52.3 92.5 54.4 103.8 65.7 81.8 65.7 81.8 68.7 102.6 68.7 92.5 78.7 94.7 80.8 105.9 69.7 105.9 104.4 108.9 104.4 108.9 70.7 119 80.8 121.1 78.7 111 68.7 133 68.7 133 65.7" fill="#000" stroke-width="0"/>
  <path d="M25.1,41.7v-14.6h-3v14.6l-7.5,7.5H0v3h14.6l7.5,7.5v14.6h3v-14.6l7.5-7.5h14.6v-3h-14.6l-7.5-7.5ZM23.6,56.9l-6.2-6.2,6.2-6.2,6.2,6.2-6.2,6.2Z" fill="#000" stroke-width="0"/>
</svg>