<?xml version="1.0" encoding="UTF-8"?>
<svg xmlns="http://www.w3.org/2000/svg" viewBox="0 0 729 568.95">
  <g id="Layer_15" data-name="Layer 15">
    <path d="M729,366.41c-4.86-.65-9.73-1.28-14.6-1.88-39.66-4.82-79.56-8.22-119.52-8.76,20.06-21.83,38.63-45.01,56.22-68.86,1.04-1.41,2.07-2.82,3.1-4.24-2.85,2.22-5.68,4.45-8.51,6.7-18.3,14.61-36.15,29.8-53.18,45.88-1.06-60.87-5.5-121.66-11.55-182.22-.91,6.91-1.78,13.83-2.62,20.75-6.6,55.38-11.11,111.08-11.81,166.87-21.77-20.17-44.69-39.13-68-57.48,19.42,25.16,39.63,49.78,61.21,73.13-41.23,1.35-82.38,4.91-123.34,9.67,38.96,4.62,78.09,8.23,117.3,9.82-18.4,20.93-35.77,42.77-52.51,65.04,22.63-18.2,44.78-37.08,65.87-57.07,1.77,61.92,7.17,123.72,14.72,185.19,5.03-59.92,9-119.98,10.37-180.1,20.53,18.99,42.19,36.76,64.42,53.71-17.06-22.79-34.98-44.97-54.16-66.01,42.35-.86,84.6-4.7,126.59-10.13Z" style="fill: #f05550; stroke-width: 0px;"/>
    <path d="M347.54,61.58c17.29-.35,34.53-2.4,51.61-5.01-16.89-4.96-34.38-8.23-51.99-8.86-1-16.05-3.56-32-6.91-47.71-3.61,15.76-6.12,31.83-6.93,47.99-15.34,1.03-30.56,3.88-45.34,8.1,14.96,2.44,30.05,4.37,45.19,5.19.68,18.32,3.75,36.53,8.16,54.29,3.46-17.79,5.83-35.86,6.2-53.99Z" style="fill: #f05550; stroke-width: 0px;"/>
    <path d="M291.86,279.28c-27.1-5.32-54.71-8.9-82.27-11.18-3.82-.3-11.47-.78-11.47-.78l-4.07-.21s-5.1-.24-7.65-.31c-.31-.01-.61,0-.91.02-4.07-4.1-8.13-8.22-12.22-12.3-6.49-6.48-13.01-12.94-19.55-19.37-1.43-1.41-2.86-2.81-4.29-4.21-.27-11.77-.99-23.53-1.9-35.27-.97-12.3-2.2-24.58-3.63-36.83-.81-6.91-1.68-13.82-2.61-20.72-4.66,24.31-7.78,48.93-8.96,73.66-.25,5.58-.4,11.16-.41,16.74-14.2,11.8-26.44,25.77-37.75,40.36-31.81-.7-63.71,4.15-94.18,13.2,13.11.41,26.21.99,39.31,1.7,13.08.7,26.15,1.54,39.22,2.41,3.52.24,10.56.7,10.56.7l.97.06s3.33.22,5,.33c.59,0,1.2.04,1.81.1,6.42,6.03,11.1,13.72,17.77,19.53,1.87,1.74,3.84,3.36,5.84,4.94,3.34,3.68,6.75,7.29,10.26,10.8,0,29.97,3.61,59.9,9.54,89.24.79,3.82,1.62,7.63,2.5,11.43.32-3.56.64-7.12.96-10.67,2.17-24.55,4.16-49.11,5.6-73.71.22-3.85.42-7.69.61-11.54,2.07-2.12,4.15-4.24,6.2-6.37,10.93-11.45,21.7-23.06,32.4-34.72,1.04.02,3.12.05,3.12.05,0,0,25.33-.27,35.88-.79,13.66-.69,27.3-1.77,40.9-3.17,7.33-.76,14.65-1.62,21.97-2.56-.11.07-.22.13-.31.16.47-.13.99-.15,1.44-.3.03,0,.06,0,.09-.01,0-.01,0-.01,0-.02.07-.03.14-.05.21-.08.07-.08.07-.2.02-.29ZM166.49,277.27c-6.89,6.53-13.37,13.51-19.43,20.82-1.29,1.56-2.57,3.14-3.82,4.73-9.94-8.82-20.61-16.82-31.87-23.87,2.29-2.97,4.58-5.95,6.86-8.93.22-.25.44-.5.66-.75,7.51-7.92,15.2-15.68,22.95-23.37,7.78,10.79,16.96,20.56,27.29,28.94-.89.81-1.77,1.61-2.65,2.43Z" style="fill: #f05550; stroke-width: 0px;"/>
  </g>
  <g id="Layer_16" data-name="Layer 16">
    <path d="M586.42,259.78c-.83-25-2.96-49.94-5.66-74.8-1.06,23.84-1.55,47.72-.94,71.59.83,25,2.96,49.94,5.66,74.8,1.06-23.84,1.55-47.72.94-71.59Z" style="fill: #f3f0dd; stroke-width: 0px;"/>
    <path d="M604.75,360.38c30.68,4.84,61.74,6.95,92.79,6.19-30.68-4.84-61.74-6.95-92.79-6.19Z" style="fill: #f3f0dd; stroke-width: 0px;"/>
    <path d="M641.29,296.47c-.11-.43-.7-.59-1.01-.27-2.58,2.1-5.14,4.23-7.67,6.39-7.55,6.37-14.63,13.26-21.42,20.43-2.57,2.7-5.11,5.45-7.61,8.22,12.4-9.62,24.19-20.03,34.97-31.44-.56,1.2-1.14,2.39-1.69,3.59,1.47-2.14,2.93-4.29,4.37-6.46.08-.14.1-.31.06-.47Z" style="fill: #f3f0dd; stroke-width: 0px;"/>
    <path d="M601.54,379.99c8.84,14.16,19.55,27.09,31.86,38.37-9.92-13.36-20.54-26.17-31.86-38.37Z" style="fill: #f3f0dd; stroke-width: 0px;"/>
    <path d="M581.59,440.63c-.58,17.27.29,34.57,2.05,51.75,2.28-33.51,3.38-67.08,3.26-100.67-2.73,16.18-4.63,32.52-5.31,48.92Z" style="fill: #f3f0dd; stroke-width: 0px;"/>
    <path d="M511.7,297.45c13.21,14.39,27.75,27.48,43.42,39.14-13.21-14.39-27.75-27.48-43.42-39.14Z" style="fill: #f3f0dd; stroke-width: 0px;"/>
    <path d="M457.77,364.54c16.1,1.31,32.32.24,48.12-3.1-16.08.29-32.14,1.34-48.12,3.1Z" style="fill: #f3f0dd; stroke-width: 0px;"/>
    <path d="M510.26,432.36c7.53-6.04,14.46-12.79,20.68-20.18-7.53,6.04-14.46,12.79-20.68,20.18Z" style="fill: #f3f0dd; stroke-width: 0px;"/>
    <path d="M586.72,343.39c.36,5.08.48,10.17.38,15.26,1.12-5.03.99-10.29-.38-15.26Z" style="fill: #f3f0dd; stroke-width: 0px;"/>
    <path d="M587.79,358.34c2.04-2.68,4.26-5.21,6.65-7.59-2.85,1.88-5.16,4.52-6.65,7.59Z" style="fill: #f3f0dd; stroke-width: 0px;"/>
    <path d="M589.95,366.73c5.7.48,11.43.4,17.11-.24-5.7-.48-11.43-.4-17.11.24Z" style="fill: #f3f0dd; stroke-width: 0px;"/>
    <path d="M570.47,348.64c.78,1.05,1.66,2.02,2.63,2.9-.78-1.05-1.66-2.02-2.63-2.9Z" style="fill: #f3f0dd; stroke-width: 0px;"/>
    <path d="M564.16,361.45c2.52.4,5.08.55,7.64.45-2.53-.4-5.08-.55-7.64-.45Z" style="fill: #f3f0dd; stroke-width: 0px;"/>
    <path d="M568.88,375.47c1.73-1.42,3.32-3,4.74-4.73-1.73,1.42-3.32,3-4.74,4.73Z" style="fill: #f3f0dd; stroke-width: 0px;"/>
    <path d="M343.21,102.42c1.06-12.14.89-24.34,1.48-36.5-2.75,11.93-3.92,24.41-1.48,36.5Z" style="fill: #f3f0dd; stroke-width: 0px;"/>
    <path d="M307.19,53.85c7.71-.4,15.46-1.07,22.89-3.27-7.75-.03-15.38,1.49-22.89,3.27Z" style="fill: #f3f0dd; stroke-width: 0px;"/>
    <path d="M156.4,240.74c-2.83-3.08-6.07-5.94-7.78-8.77-3.01-5.09-2.09-12.35-2.84-19.6-1.26-19.82-2.92-39.61-4.81-59.38.35,19.61.93,39.22,1.89,58.81.56,6.35-.02,13.02,2.17,19.1,1.34,3.47,4.13,6.05,6.75,8.59,3.16,3.06,6.32,6.11,9.5,9.15,6.3,6.02,12.65,12.01,19.02,17.95.79.74,1.58,1.47,2.37,2.21-8.67-9.43-17.42-18.78-26.27-28.05Z" style="fill: #f3f0dd; stroke-width: 0px;"/>
    <path d="M200.02,270.58c27.56,4.52,55.34,7.6,83.22,9.21-27.56-4.52-55.34-7.6-83.22-9.21Z" style="fill: #f3f0dd; stroke-width: 0px;"/>
    <path d="M107.67,281.58c11.27,9.03,23.09,17.33,35.44,24.82-10.27-10.27-22.28-18.69-35.44-24.82Z" style="fill: #f3f0dd; stroke-width: 0px;"/>
    <path d="M143.04,403.81c.74-21.99,1.11-43.99,1.09-66-3.66,21.81-4.04,44.09-1.09,66Z" style="fill: #f3f0dd; stroke-width: 0px;"/>
    <path d="M46.21,275.08c17.39.52,34.79-.47,52.01-2.91-17.39-.52-34.79.47-52.01,2.91Z" style="fill: #f3f0dd; stroke-width: 0px;"/>
    <path d="M341.37,11.05c-.12,12.69.88,25.35,2.96,37.87.12-12.69-.88-25.35-2.96-37.87Z" style="fill: #f3f0dd; stroke-width: 0px;"/>
    <path d="M353.43,50.09c13.29,1.91,26.55,4.1,39.75,6.55-12.68-4.72-26.23-6.95-39.75-6.55Z" style="fill: #f3f0dd; stroke-width: 0px;"/>
  </g>
</svg>