<?xml version="1.0" encoding="UTF-8"?>
<svg id="Layer_1" data-name="Layer 1" xmlns="http://www.w3.org/2000/svg" viewBox="0 0 138.83 288.23">
  <defs>
    <style>
      .cls-1 {
        fill: #fff;
        stroke-width: 0px;
      }
    </style>
  </defs>
  <path class="cls-1" d="M83.48,165.75c-2.25-2.48-3.17-6.1-3.17-10.03v-38.59c0-6.32,2.37-11.84,8.84-13.11,3.64-.63,4.58-1.42,4.58-3.16,0-1.57-1.42-2.68-3.79-2.68-3.8,0-15.64,1.58-20.69,1.58s-17.06-1.58-20.84-1.58c-2.37,0-3.79,1.11-3.79,2.68,0,1.74.95,2.53,4.58,3.16,6.47,1.1,9,6.79,9,13.11v38.59c0,3.91-.97,7.59-3.25,10.08C22.62,170.72,0,192.61,0,226.47,0,265.48,29.54,288.23,69.33,288.23s69.49-22.9,69.49-61.76c0-33.96-22.75-55.87-55.34-60.72ZM69.33,279.07c-23.06,0-43.6-21-43.6-52.91s19.19-51.66,41.31-53c.08,0,.17,0,.25-.02.31-.02.63-.03.94-.04.36,0,.73-.02,1.1-.02.5,0,1.01,0,1.51.04.41,0,.81.04,1.22.07.18,0,.34.02.51.04,21.85,1.86,40.51,22.51,40.51,52.93s-20.54,52.91-43.75,52.91Z"/>
  <circle class="cls-1" cx="76.15" cy="79.93" r="8.83"/>
  <circle class="cls-1" cx="54.07" cy="48.58" r="13.25"/>
  <circle class="cls-1" cx="82.33" cy="17.66" r="17.66"/>
  <path class="cls-1" d="M68.99,227.52c-16.26-11.12-27.21-4.66-35.22.08.61,25.24,17.1,41.76,35.58,41.76s35.01-16.44,35.7-41.58c-.26,0-.51.1-.69.3-.56.58-13.92,14.11-35.37-.56Z"/>
</svg>