<?xml version="1.0" encoding="UTF-8"?>
<svg id="Layer_2" data-name="Layer 2" xmlns="http://www.w3.org/2000/svg" viewBox="0 0 408.63 409.17">
  <g id="Layer_13" data-name="Layer 13">
    <g>
      <path d="M180.37,227.04c5.38-4.15-.41-12.16-6.06-8.34-24.68,16.84-47.24,36.7-67.72,58.42-1.18,1.25-2.34,2.51-3.51,3.78,9.85-7.29,19.79-14.44,29.81-21.48,15.67-11.02,31.57-21.71,47.48-32.37Z" style="fill: #ed8a22; stroke-width: 0px;"/>
      <path d="M228.56,184.02c-5.38,4.15.41,12.16,6.06,8.34,24.68-16.84,47.24-36.7,67.72-58.42,1.18-1.25,2.34-2.51,3.51-3.78-9.85,7.29-19.79,14.44-29.81,21.48-15.67,11.02-31.57,21.71-47.48,32.37Z" style="fill: #ed8a22; stroke-width: 0px;"/>
      <path d="M181.76,180.02c4.15,5.38,12.16-.41,8.34-6.06-16.84-24.68-36.7-47.24-58.42-67.72-1.25-1.18-2.51-2.34-3.78-3.51,7.29,9.85,14.44,19.79,21.48,29.81,11.02,15.67,21.71,31.57,32.37,47.48Z" style="fill: #ed8a22; stroke-width: 0px;"/>
      <path d="M227,228.85c-3.96-5.52-12.17-.01-8.55,5.77,15.96,25.25,35.03,48.49,56.02,69.72,1.21,1.22,2.43,2.43,3.65,3.64-6.94-10.09-13.74-20.28-20.43-30.54-10.47-16.04-20.6-32.31-30.7-48.58Z" style="fill: #ed8a22; stroke-width: 0px;"/>
      <path d="M191.93,234.38c3.33-5.92-5.13-11.03-8.84-5.31-16.14,25.14-29.14,52.24-39.51,80.24-.59,1.61-1.18,3.23-1.75,4.85,6.22-10.55,12.58-21.02,19.05-31.42,10.11-16.27,20.57-32.32,31.06-48.35Z" style="fill: #ed8a22; stroke-width: 0px;"/>
      <path d="M218.21,173.22c-3.93,5.54,3.95,11.51,8.24,6.21,18.68-23.32,34.44-48.91,47.69-75.67.76-1.54,1.51-3.09,2.25-4.64-7.29,9.85-14.7,19.59-22.23,29.26-11.76,15.12-23.84,29.99-35.94,44.84Z" style="fill: #ed8a22; stroke-width: 0px;"/>
      <path d="M171.53,194.52c5.74,3.63,11.29-4.55,5.77-8.55-24.26-17.43-50.65-31.83-78.06-43.66-1.58-.68-3.16-1.34-4.75-2,10.21,6.76,20.34,13.66,30.38,20.67,15.72,10.95,31.2,22.24,46.66,33.54Z" style="fill: #ed8a22; stroke-width: 0px;"/>
      <path d="M234.81,217.06c-5.74-3.63-11.29,4.55-5.77,8.55,24.26,17.43,50.65,31.83,78.06,43.66,1.58.68,3.16,1.34,4.75,2-10.21-6.76-20.34-13.66-30.38-20.67-15.72-10.95-31.2-22.24-46.66-33.54Z" style="fill: #ed8a22; stroke-width: 0px;"/>
      <path d="M390.16,209.31c6.16-.14,12.31-.28,18.47-.41-32.55-4.79-65.31-8.15-98.16-9.91-17.05-.91-34.12-1.4-51.2-1.38-6.14,0-12.28.07-18.42.24-1.1-.09-2.14.09-3.12.55-8.18,2.81-6.25,15.09,2.39,15.5,50.01-1.54,100.01-3.46,150.04-4.58Z" style="fill: #ed8a22; stroke-width: 0px;"/>
      <path d="M18.43,210.83c-6.14.42-12.29.84-18.43,1.25,32.73,3.3,65.61,5.17,98.51,5.44,17.07.14,34.15-.16,51.21-.95,6.13-.29,12.26-.63,18.39-1.07,1.11.04,2.14-.19,3.09-.69,8.04-3.18,5.56-15.36-3.09-15.37-49.89,3.81-99.75,8.01-149.68,11.4Z" style="fill: #ed8a22; stroke-width: 0px;"/>
      <path d="M205.23,18.47c-.14-6.16-.28-12.31-.41-18.47-4.79,32.55-8.15,65.31-9.91,98.16-.91,17.05-1.4,34.12-1.38,51.2,0,6.14.07,12.28.24,18.42-.09,1.1.09,2.14.55,3.12,2.81,8.18,15.09,6.25,15.5-2.39-1.54-50.01-3.46-100.01-4.58-150.04Z" style="fill: #ed8a22; stroke-width: 0px;"/>
      <path d="M206.75,390.74c.42,6.14.84,12.29,1.25,18.43,3.3-32.73,5.17-65.61,5.44-98.51.14-17.07-.16-34.15-.95-51.21-.29-6.13-.63-12.26-1.07-18.39.04-1.11-.19-2.14-.69-3.09-3.18-8.04-15.36-5.56-15.37,3.09,3.81,49.89,8.01,99.75,11.4,149.68Z" style="fill: #ed8a22; stroke-width: 0px;"/>
      <path d="M203.36,37.99c-1.94,42.58-1.14,85.25,2.37,127.74.99-42.6.2-85.21-2.37-127.74Z" style="fill: #f3f0dd; stroke-width: 0px;"/>
      <path d="M258.95,129.15c3.48-6.03,6.93-12.08,10.36-18.14-4.27,5.54-7.76,11.65-10.36,18.14Z" style="fill: #f3f0dd; stroke-width: 0px;"/>
      <path d="M270.78,158.6c8.53-5.17,16.44-11.31,23.56-18.29-8,5.91-15.85,12.01-23.56,18.29Z" style="fill: #f3f0dd; stroke-width: 0px;"/>
      <path d="M356.04,206.98c-37.61-6.77-76.01-8.71-114.13-5.94,40.02,1.43,80.02,3.76,119.93,6.99-1.93-.36-3.87-.71-5.8-1.05Z" style="fill: #f3f0dd; stroke-width: 0px;"/>
      <path d="M237.88,222.61c11.54,10.29,24.33,19.13,38.03,26.29-12.59-8.89-25.27-17.66-38.03-26.29Z" style="fill: #f3f0dd; stroke-width: 0px;"/>
      <path d="M304.52,282.02c-.15-.13-.3-.28-.43-.43" style="fill: none; stroke: #f3f0dd; stroke-linecap: round; stroke-linejoin: round; stroke-width: 0px;"/>
      <path d="M229.61,236.31c8.96,18.11,19.93,35.18,32.63,50.89-10.56-17.17-21.44-34.13-32.63-50.89Z" style="fill: #f3f0dd; stroke-width: 0px;"/>
      <path d="M208.56,248.26c-1.48,35.52-.94,71.1,1.61,106.56,1.48-35.52.94-71.1-1.61-106.56Z" style="fill: #f3f0dd; stroke-width: 0px;"/>
      <path d="M188.91,230.74c2.76,1.82-.24,4.91-1.56,6.68-3.24,4.26-6.29,8.67-9.17,13.19-1.29,2.01-2.55,4.04-3.8,6.08,1.39-1.74,2.75-3.49,4.1-5.26,3.38-4.41,6.59-8.94,9.58-13.62,1.28-1.92,3.93-5.54.84-7.08Z" style="fill: #f3f0dd; stroke-width: 0px;"/>
      <path d="M178.44,221.14c1.27,1.14-.06,2.79-1.23,3.38-1.99,1.27-3.97,2.55-5.93,3.87-4.51,3.01-8.84,6.29-13.11,9.64-.93.74-1.86,1.48-2.79,2.22,1.88-1.16,3.75-2.33,5.6-3.53,5.57-3.56,10.94-7.42,16.14-11.5,1.29-.85,3-2.78,1.32-4.09Z" style="fill: #f3f0dd; stroke-width: 0px;"/>
      <path d="M161.76,142.06c8.76,10.5,17.29,21.19,25.58,32.07-6.79-11.95-15.44-22.8-25.58-32.07Z" style="fill: #f3f0dd; stroke-width: 0px;"/>
      <path d="M118.73,153.82c17.14,11.36,34.99,21.62,53.45,30.69-17.14-11.36-34.99-21.62-53.45-30.69Z" style="fill: #f3f0dd; stroke-width: 0px;"/>
      <path d="M173.15,206.97c-.69-4.29-5.72-4.81-9.26-4.59-5.89.09-11.78.27-17.67.55-18.36.82-36.62,3.02-54.81,5.53,17.1-.52,34.2-1.31,51.25-2.82,5.73-.5,11.46-1.05,17.18-1.61,4.34-.2,11.86-2.57,13.19,3.39.05.44,0,.89-.14,1.31.26-.55.34-1.17.26-1.76Z" style="fill: #f3f0dd; stroke-width: 0px;"/>
    </g>
  </g>
</svg>