<?xml version="1.0" encoding="UTF-8"?>
<svg id="Layer_1" data-name="Layer 1" xmlns="http://www.w3.org/2000/svg" version="1.1" viewBox="0 0 138.8 288.2">
  <defs>
    <style>
      .cls-1 {
        fill: #2b333a;
        stroke-width: 0px;
      }
    </style>
  </defs>
  <path class="cls-1" d="M83.5,165.8c-2.2-2.5-3.2-6.1-3.2-10v-38.6c0-6.3,2.4-11.8,8.8-13.1,3.6-.6,4.6-1.4,4.6-3.2s-1.4-2.7-3.8-2.7c-3.8,0-15.6,1.6-20.7,1.6s-17.1-1.6-20.8-1.6-3.8,1.1-3.8,2.7,1,2.5,4.6,3.2c6.5,1.1,9,6.8,9,13.1v38.6c0,3.9-1,7.6-3.2,10.1C22.6,170.7,0,192.6,0,226.5s29.5,61.8,69.3,61.8,69.5-22.9,69.5-61.8-22.8-55.9-55.3-60.7h0ZM69.3,279.1c-23.1,0-43.6-21-43.6-52.9s19.2-51.7,41.3-53c0,0,.2,0,.2,0,.3,0,.6,0,.9,0,.4,0,.7,0,1.1,0s1,0,1.5,0c.4,0,.8,0,1.2,0,.2,0,.3,0,.5,0,21.8,1.9,40.5,22.5,40.5,52.9s-20.5,52.9-43.8,52.9h0Z"/>
  <circle class="cls-1" cx="76.2" cy="79.9" r="8.8"/>
  <circle class="cls-1" cx="54.1" cy="48.6" r="13.2"/>
  <circle class="cls-1" cx="82.3" cy="17.7" r="17.7"/>
  <path class="cls-1" d="M69,227.5c-16.3-11.1-27.2-4.7-35.2,0,.6,25.2,17.1,41.8,35.6,41.8s35-16.4,35.7-41.6c-.3,0-.5.1-.7.3-.6.6-13.9,14.1-35.4-.6h0Z"/>
</svg>