<?xml version="1.0" encoding="UTF-8"?>
<svg xmlns="http://www.w3.org/2000/svg" xmlns:xlink="http://www.w3.org/1999/xlink" version="1.1" viewBox="0 0 401.8 773">
  <defs>
    <style>
      .cls-1 {
        font-family: MyriadPro-Regular, 'Myriad Pro';
        font-size: 30.1px;
      }

      .cls-1, .cls-2 {
        fill: #fee6d1;
      }

      .cls-3 {
        clip-path: url(#clippath);
      }

      .cls-4 {
        fill: none;
      }

      .cls-4, .cls-5, .cls-6, .cls-7, .cls-2, .cls-8, .cls-9 {
        stroke-width: 0px;
      }

      .cls-5 {
        opacity: .1;
      }

      .cls-5, .cls-8 {
        fill: #fff;
      }

      .cls-10 {
        clip-path: url(#clippath-1);
      }

      .cls-11 {
        clip-path: url(#clippath-4);
      }

      .cls-12 {
        clip-path: url(#clippath-3);
      }

      .cls-13 {
        clip-path: url(#clippath-2);
      }

      .cls-14 {
        clip-path: url(#clippath-7);
      }

      .cls-15 {
        clip-path: url(#clippath-8);
      }

      .cls-16 {
        clip-path: url(#clippath-6);
      }

      .cls-17 {
        clip-path: url(#clippath-5);
      }

      .cls-18 {
        clip-path: url(#clippath-9);
      }

      .cls-6 {
        fill: #000;
      }

      .cls-19 {
        clip-path: url(#clippath-10);
      }

      .cls-20 {
        clip-path: url(#clippath-11);
      }

      .cls-21 {
        mix-blend-mode: soft-light;
      }

      .cls-22 {
        opacity: .5;
      }

      .cls-23 {
        opacity: .8;
      }

      .cls-7 {
        fill: #fccc5b;
      }

      .cls-24 {
        isolation: isolate;
      }

      .cls-9 {
        fill: #fff4eb;
      }
    </style>
    <clipPath id="clippath">
      <rect class="cls-4" x="279.5" y="542.3" width="31.4" height="200.3"/>
    </clipPath>
    <clipPath id="clippath-1">
      <rect class="cls-4" x="279.5" y="542.3" width="31.4" height="200.3"/>
    </clipPath>
    <clipPath id="clippath-2">
      <rect class="cls-4" x="83.6" y="543.8" width="37.6" height="188.2"/>
    </clipPath>
    <clipPath id="clippath-3">
      <rect class="cls-4" x="83.6" y="543.8" width="37.6" height="188.2"/>
    </clipPath>
    <clipPath id="clippath-4">
      <rect class="cls-4" x="125.9" y="718.6" width="152.6" height="44"/>
    </clipPath>
    <clipPath id="clippath-5">
      <rect class="cls-4" x="125.9" y="718.6" width="152.6" height="44"/>
    </clipPath>
    <clipPath id="clippath-6">
      <rect class="cls-4" x="22.3" y="121.2" width="123.4" height="357.4"/>
    </clipPath>
    <clipPath id="clippath-7">
      <rect class="cls-4" x="22.3" y="121.2" width="123.4" height="357.4"/>
    </clipPath>
    <clipPath id="clippath-8">
      <rect class="cls-4" x="315" y="35.4" width="47.2" height="387.1"/>
    </clipPath>
    <clipPath id="clippath-9">
      <rect class="cls-4" x="315" y="35.4" width="47.2" height="387"/>
    </clipPath>
    <clipPath id="clippath-10">
      <rect class="cls-4" x="292.9" y="59.1" width="15.9" height="128.9"/>
    </clipPath>
    <clipPath id="clippath-11">
      <rect class="cls-4" x="292.9" y="59.1" width="15.9" height="128.9"/>
    </clipPath>
  </defs>
  <g class="cls-24">
    <g id="Layer_2" data-name="Layer 2">
      <g id="_160z" data-name="160z">
        <g>
          <g class="cls-23">
            <path class="cls-7" d="M401.8,173.1c.1-24.7-.8-48.9-2.7-72.4h.1c-2.4-30-11.4-81.6-14.2-97-.5-2.6-2.7-4.5-5.4-4.5L182.5,0h0S23.8.8,23.8.8c-2.6,0-4.9,1.9-5.4,4.6-2.9,15.5-12.3,67.1-15,97.2C1.3,126,.1,150.2,0,174.9c-.5,100,16.3,191.7,44.4,263.3,9.3,23.7,34.5,50,33.8,192.5-.2,40.4-20.6,121.2-20.6,121.2,0,11.7,7,21.2,15.8,21.1l249.5-1.2c8.8,0,15.9-9.6,16-21.3,0,0-19.7-79-19.5-121,.6-139.9,25.6-167.8,35.6-192.8,28.8-71.8,46.4-163.6,46.8-263.7Z"/>
            <path class="cls-9" d="M385.1,3.6c-.5-2.6-2.7-4.5-5.4-4.5L182.5,0h0S23.8.8,23.8.8c-2.6,0-4.9,1.9-5.4,4.6-2.7,14.4-11,60.1-14.4,90.5h394.7c-2.9-30.4-11.1-77.6-13.7-92.2Z"/>
            <path class="cls-5" d="M355,436.8c-10,25-35,52.9-35.6,192.8-.2,42,19.5,121,19.5,121,0,11.7-7.2,21.2-16,21.3l-249.5,1.2c-8.8,0-15.9-9.4-15.8-21.1,0,0,20.5-80.8,20.6-121.2.7-142.5-24.5-168.8-33.8-192.5C16.3,366.7-.4,275,0,174.9c.1-24.7,1.3-48.9,3.4-72.5C6.1,72.5,15.5,20.8,18.4,5.3c.5-2.6,2.8-4.5,5.4-4.6L182.5,0h0s197.2-.9,197.2-.9c2.6,0,4.9,1.9,5.4,4.5,2.8,15.5,11.7,67,14.2,97h-.1c1.9,23.5,2.8,47.7,2.7,72.4-.5,100-18,191.9-46.8,263.7Z"/>
          </g>
          <g>
            <g class="cls-22">
              <g class="cls-21">
                <g class="cls-3">
                  <g class="cls-10">
                    <path class="cls-8" d="M306.6,709.5c-4.2-13.5-8.3-27-11.2-40.9-3.2-15.6-5.5-31.4-6.6-47.3-.7-5.8-1-34.2,0-44.8.8-11.5,2.1-22.9,4-34.2-4.1,12.4-7.2,25.2-9.4,38.1-6,36.3-5.1,73.8,2.3,109.8,1.9,9.2,4.1,18.4,6.9,27.3,3.1,9.8,7.8,21.3,18.2,25.1-.2-11.2-1.5-22.3-4.3-33.1"/>
                  </g>
                </g>
              </g>
              <g class="cls-21">
                <g class="cls-13">
                  <g class="cls-12">
                    <path class="cls-6" d="M120.7,575.3c-.5-10.3-2.5-24.2-10.4-31.5-3.1,11-3.8,22.7-2.9,34.1.6,9.7.9,19.5.7,29.2-.4,28.8-4.5,59.1-13.2,90.3-3.3,11.7-7.1,23.3-11.4,34.7,1.5-2.5,3-5.1,4.5-7.7,5.1-9.1,9.5-18.5,13.4-28.2,11.7-29.3,18-60.6,19.4-92.1.5-9.6.4-19.2-.2-28.7"/>
                  </g>
                </g>
              </g>
              <g class="cls-21">
                <g class="cls-11">
                  <g class="cls-17">
                    <path class="cls-8" d="M277.4,731.9c-5.9-19.6-21.3-15.2-31.9-2.1,4.2,2.9,8.9,5.1,13.2,7.8-5.8.5-11.7-.4-17.5-.3-33.5-.6-67,3.2-99.6,10.7-5.3,1.2-10.5,2.5-15.7,3.9,6.8.2,13.6.4,20.4.7,20.5.9,41,2.4,61.4,4.4,13.7,1.3,27.3,2.9,40.9,4.7,8.3,1.3,18.4,2.2,24.6-4.7,5.6-6.9,6.3-16.7,4.2-25.1"/>
                  </g>
                </g>
              </g>
              <g class="cls-21">
                <g class="cls-16">
                  <g class="cls-14">
                    <path class="cls-6" d="M109.8,440.2c-3.4-3.8-6.8-7.5-10.2-11.3-8.8-10.5-8.8-11.2-13.1-18.2-6.3-10.7-11.4-22-16.2-33.4-5.9-14.5-4.8-11.6-10.5-27.4-10.5-30-17.9-59.7-22-82.7-8.8-49.1-11-95.8-6.8-146.1-7.6,39.5-10.2,80-8,120.2,3,55.4,14.5,110.4,34.9,162,8.7,22.4,19.7,44.6,36.7,62,13.6,13.4,33.8,17.2,51.1,8.9-13.2-9.9-24.8-21.7-35.8-34"/>
                  </g>
                </g>
              </g>
              <g class="cls-21">
                <g class="cls-15">
                  <g class="cls-18">
                    <path class="cls-8" d="M360.4,124.4c-2.5-30.4-3.9-63.1-21.7-89-1.5,16.5-2,33.1-.7,49.6.8,12,2.7,23.9,3.7,35.9.6,6.9,1.2,13.8,1.7,20.7,4.9,81.8.5,146.5-15.4,227.2-3.7,18-8,35.8-12.8,53.6,9.3-23,17.2-46.5,23.6-70.5,19.9-73.9,27.2-151.2,21.7-227.6"/>
                  </g>
                </g>
              </g>
              <g class="cls-21">
                <g class="cls-19">
                  <g class="cls-20">
                    <path class="cls-8" d="M307.9,109.4c-.7-8.6-1.7-17.2-3.1-25.7-1.5-7.9-2.8-20.5-10.7-24.6-1.8,8.8-1.3,17.9.7,26.7,1.6,8.3,3.1,16.6,4.4,25,3.8,26.1,5.3,47.6,4.9,74.1,0,1.1,0,2.1,0,3.2.8-4.1,1.4-8.2,2-12.3,3.1-22,3.7-44.2,1.9-66.3"/>
                  </g>
                </g>
              </g>
            </g>
            <polygon class="cls-2" points="99.6 187.6 99.6 222.5 127.8 222.5 127.8 214.5 107.6 214.5 107.7 195.6 127.8 195.6 127.8 187.6 99.6 187.6"/>
            <path class="cls-2" d="M140.5,195.6h12.2s0,18.9,0,18.9h-12.1s0-18.9,0-18.9ZM132.5,222.5h28.2s0-34.9,0-34.9h-28.2s0,34.9,0,34.9Z"/>
            <polygon class="cls-2" points="188.3 187.6 179.4 196.5 170.5 187.6 165.2 187.6 165.2 222.5 173.3 222.5 173.3 203.9 178.4 209.1 180.3 209.1 185.4 203.9 185.4 222.5 193.4 222.5 193.4 187.6 188.3 187.6"/>
            <path class="cls-2" d="M206.2,195.6h12.2s0,5.4,0,5.4h-12.2s0-5.4,0-5.4ZM198.2,187.6v34.9s8,0,8,0v-12.2s12.2,12.2,12.2,12.2h8s0-4.8,0-4.8l-8.6-8.7h8.6s0-21.4,0-21.4h-28.2Z"/>
            <path class="cls-2" d="M239.1,195.6h12.2s0,12.2,0,12.2h-12.2s0-12.2,0-12.2ZM231,187.6v34.9s8,0,8,0v-6.7s12.2,0,12.2,0v6.7s8,0,8,0v-34.9s-28.2,0-28.2,0Z"/>
            <path class="cls-2" d="M272,195.6h12.2s0,18.9,0,18.9h-12.2s0-18.9,0-18.9ZM264,187.6v34.9s21.8,0,21.8,0l6.4-6.4v-22.1s-6.4-6.4-6.4-6.4h-21.8Z"/>
            <polygon class="cls-2" points="296.9 187.6 296.9 222.5 325.1 222.5 325.1 214.5 305.2 214.5 305.2 209.1 318.4 209.1 318.4 201.1 304.9 201.1 304.9 195.6 325.1 195.6 325.1 187.6 296.9 187.6"/>
            <path class="cls-2" d="M107.6,256.2h12.2s0,5.4,0,5.4h-12.2s0-5.4,0-5.4ZM107.6,242.8h12.2s0,5.4,0,5.4h-12.2s0-5.4,0-5.4ZM99.6,234.8v34.9s28.2,0,28.2,0v-15s-2.6-2.6-2.6-2.6l2.6-2.6v-14.7c0,0-28.3,0-28.3,0Z"/>
            <path class="cls-2" d="M140.5,242.8h12.2s0,5.4,0,5.4h-12.2s0-5.4,0-5.4ZM132.5,234.8v34.9s8,0,8,0v-12.2s12.2,12.2,12.2,12.2h8s0-4.8,0-4.8l-8.6-8.7h8.6s0-21.4,0-21.4h-28.2Z"/>
            <polygon class="cls-2" points="165.4 234.8 165.4 269.7 193.6 269.7 193.6 261.7 173.7 261.7 173.7 256.2 186.8 256.2 186.8 248.3 173.4 248.3 173.4 242.8 193.6 242.8 193.6 234.8 165.4 234.8"/>
            <polygon class="cls-2" points="225.3 234.8 225.3 261.7 219.8 261.7 219.8 234.8 211.8 234.8 211.8 261.7 206.3 261.7 206.3 234.8 198.3 234.8 198.3 269.7 233.3 269.7 233.3 234.8 225.3 234.8"/>
            <rect class="cls-2" x="238.1" y="234.8" width="8" height="34.9"/>
            <polygon class="cls-2" points="271.5 234.8 271.5 250.6 259.3 238.3 259.3 234.8 251.3 234.8 251.3 269.7 259.3 269.7 259.3 250.7 271.5 263 271.5 269.7 279.5 269.7 279.5 234.8 271.5 234.8"/>
            <polygon class="cls-2" points="284.2 234.8 284.2 269.7 312.4 269.7 312.4 248.3 304.4 248.3 304.4 261.7 292.2 261.7 292.2 242.8 312.4 242.8 312.4 234.8 284.2 234.8"/>
            <polygon class="cls-2" points="99.6 282 99.6 316.9 127.8 316.9 127.8 308.9 107.6 308.9 107.7 290 127.8 290 127.8 282 99.6 282"/>
            <path class="cls-2" d="M140.5,290h12.1s0,18.9,0,18.9h-12.1s0-18.9,0-18.9ZM132.5,316.9h28.2s0-34.9,0-34.9h-28.2s0,34.9,0,34.9Z"/>
            <text class="cls-1" transform="translate(166 295.3)"><tspan x="0" y="0">®</tspan></text>
          </g>
        </g>
      </g>
    </g>
  </g>
</svg>